<?xml version="1.0" encoding="utf-8"?>
<!-- Generator: Adobe Illustrator 26.0.0, SVG Export Plug-In . SVG Version: 6.00 Build 0)  -->
<svg version="1.1" id="Calque_1" xmlns="http://www.w3.org/2000/svg" xmlns:xlink="http://www.w3.org/1999/xlink" x="0px" y="0px"
	 viewBox="0 0 721 1078" style="enable-background:new 0 0 721 1078;" xml:space="preserve">
<style type="text/css">
	.st0{fill:none;stroke:#333333;stroke-width:5;stroke-miterlimit:10;}
	.st1{fill:#333333;stroke:#333333;stroke-width:5;stroke-miterlimit:10;}
	.st2{fill:#FFFFFF;stroke:#000000;}
	.st3{font-family:'ArialMT';}
	.st4{font-size:12px;}
	.st5{fill:#FFFFFF;stroke:#000000;stroke-miterlimit:10;}
	.st6{fill:none;stroke:#000000;stroke-width:4;stroke-miterlimit:10;}
	.st7{stroke:#000000;stroke-width:4;stroke-miterlimit:10;}
	.st8{fill:#FFFFFF;stroke:#000000;stroke-width:2;}
	.st9{fill:#333333;stroke:#000000;}
	.st10{fill:none;stroke:#333333;stroke-width:2;stroke-miterlimit:10;}
	.st11{fill-opacity:5.000000e-02;}
	.st12{fill:none;stroke:#000000;stroke-miterlimit:10;}
	.st13{fill:none;}
	.st14{font-family:'MyriadPro-Regular';}
</style>
<path pointer-events="stroke" class="st0" d="M291.5,223.6v46.2"/>
<path pointer-events="all" class="st1" d="M291.5,278l-5.5-11l5.5,2.8l5.5-2.8L291.5,278z"/>
<rect x="251.5" y="143.6" pointer-events="all" class="st2" width="80" height="80"/>
<g transform="translate(-0.5 -0.5)">
	<text transform="matrix(1 0 0 1 252.3301 187.61)" class="st3 st4">réception d&apos;u...</text>
</g>
<path pointer-events="stroke" class="st0" d="M291.5,503.6v36.2"/>
<path pointer-events="all" class="st1" d="M291.5,548l-5.5-11l5.5,2.8l5.5-2.8L291.5,548z"/>
<ellipse pointer-events="all" class="st2" cx="291.5" cy="463.6" rx="40" ry="40"/>
<g transform="translate(-0.5 -0.5)">
	<text transform="matrix(1 0 0 1 283.4932 467.61)" class="st3 st4">oui</text>
</g>
<path pointer-events="stroke" class="st0" d="M550.5,323.6h67.2"/>
<path pointer-events="all" class="st1" d="M625.9,323.6l-11,5.5l2.8-5.5l-2.8-5.5L625.9,323.6z"/>
<ellipse pointer-events="all" class="st2" cx="510.5" cy="323.6" rx="40" ry="40"/>
<g transform="translate(-0.5 -0.5)">
	<text transform="matrix(1 0 0 1 500.4893 327.61)" class="st3 st4">non</text>
</g>
<path pointer-events="stroke" class="st0" d="M331.5,863.6H356l8.7-0.1"/>
<path pointer-events="all" class="st1" d="M373,863.4L362,869l2.7-5.5l-2.8-5.5L373,863.4z"/>
<ellipse pointer-events="all" class="st2" cx="291.5" cy="863.6" rx="40" ry="40"/>
<g transform="translate(-0.5 -0.5)">
	<text transform="matrix(1 0 0 1 283.4932 867.61)" class="st3 st4">oui</text>
</g>
<ellipse pointer-events="all" class="st2" cx="60.5" cy="721.1" rx="40" ry="40"/>
<g transform="translate(-0.5 -0.5)">
	<text transform="matrix(1 0 0 1 50.4893 724.61)" class="st3 st4">non</text>
</g>
<path pointer-events="stroke" class="st0" d="M291.5,613.6v33.7"/>
<path pointer-events="all" class="st1" d="M291.5,655.5l-5.5-11l5.5,2.8l5.5-2.8L291.5,655.5z"/>
<path pointer-events="all" class="st2" d="M230.5,553.6h122c5,0,9,4,9,9v42c0,5-4,9-9,9h-122c-5,0-9-4-9-9v-42
	C221.5,557.6,225.5,553.6,230.5,553.6z"/>
<g transform="translate(-0.5 -0.5)">
	<text transform="matrix(1 0 0 1 253.1387 587.61)" class="st3 st4">pour chaque...</text>
</g>
<path pointer-events="stroke" class="st0" d="M291.5,363.6v46.2"/>
<path pointer-events="all" class="st1" d="M291.5,418l-5.5-11l5.5,2.8l5.5-2.8L291.5,418z"/>
<path pointer-events="stroke" class="st0" d="M371.5,323.6h85.2"/>
<path pointer-events="all" class="st1" d="M464.9,323.6l-11,5.5l2.8-5.5l-2.8-5.5L464.9,323.6z"/>
<path pointer-events="all" class="st5" d="M291.5,283.6l80,40l-80,40l-80-40L291.5,283.6z"/>
<g transform="translate(-0.5 -0.5)">
	<text transform="matrix(1 0 0 1 281.8291 327.61)" class="st3 st4">la...</text>
</g>
<path pointer-events="stroke" class="st0" d="M291.5,781.1v28.7"/>
<path pointer-events="all" class="st1" d="M291.5,818l-5.5-11l5.5,2.8l5.5-2.8L291.5,818z"/>
<path pointer-events="stroke" class="st0" d="M635.5,901.1v63.7"/>
<path pointer-events="all" class="st1" d="M635.5,973l-5.5-11l5.5,2.8l5.5-2.8L635.5,973z"/>
<path pointer-events="stroke" class="st6" d="M520.5,858.6h28"/>
<path pointer-events="all" class="st7" d="M556,858.6l-10,5l2.5-5l-2.5-5L556,858.6z"/>
<path pointer-events="all" class="st2" d="M391,823.6h119c5.8,0,10.5,4.7,10.5,10.5v49c0,5.8-4.7,10.5-10.5,10.5H391
	c-5.8,0-10.5-4.7-10.5-10.5v-49C380.5,828.3,385.2,823.6,391,823.6z"/>
<g transform="translate(-0.5 -0.5)">
	<text transform="matrix(1 0 0 1 389.7969 862.61)" class="st3 st4">ajout de la recette à l...</text>
</g>
<path pointer-events="stroke" class="st0" d="M595.5,583.6H375.3"/>
<path pointer-events="all" class="st1" d="M367.1,583.6l11-5.5l-2.8,5.5l2.8,5.5L367.1,583.6z"/>
<path pointer-events="stroke" class="st6" d="M635.5,816.1V635.6"/>
<path pointer-events="all" class="st7" d="M635.5,628.1l5,10l-5-2.5l-5,2.5L635.5,628.1z"/>
<path pointer-events="all" class="st5" d="M635.5,816.1l75,42.5l-75,42.5l-75-42.5L635.5,816.1z"/>
<g transform="translate(-0.5 -0.5)">
	<text transform="matrix(1 0 0 1 608.6758 862.61)" class="st3 st4">c&apos;était la...</text>
</g>
<ellipse pointer-events="all" class="st2" cx="635.5" cy="583.6" rx="40" ry="40"/>
<g transform="translate(-0.5 -0.5)">
	<text transform="matrix(1 0 0 1 625.4893 587.61)" class="st3 st4">non</text>
</g>
<path pointer-events="stroke" class="st0" d="M595.5,1018.6h-71.2"/>
<path pointer-events="all" class="st1" d="M516.1,1018.6l11-5.5l-2.8,5.5l2.8,5.5L516.1,1018.6z"/>
<ellipse pointer-events="all" class="st2" cx="635.5" cy="1018.6" rx="40" ry="40"/>
<g transform="translate(-0.5 -0.5)">
	<text transform="matrix(1 0 0 1 627.4932 1022.61)" class="st3 st4">oui</text>
</g>
<ellipse pointer-events="all" class="st8" cx="485.5" cy="1018.6" rx="25" ry="25"/>
<ellipse pointer-events="all" class="st9" cx="485.5" cy="1018.6" rx="20" ry="20"/>
<ellipse pointer-events="all" class="st8" cx="651.5" cy="323.6" rx="20" ry="20"/>
<path pointer-events="stroke" class="st10" d="M637.4,337.8l28.3-28.3"/>
<path pointer-events="stroke" class="st10" d="M665.6,337.8l-28.3-28.3"/>
<path pointer-events="all" class="st5" d="M429.5,43.6h180l30,30v170h-210V43.6z"/>
<path pointer-events="all" class="st11" d="M609.5,43.6v30h30L609.5,43.6z"/>
<path pointer-events="all" class="st12" d="M609.5,43.6v30h30"/>
<path pointer-events="stroke" class="st0" d="M291.5,103.6v26.2"/>
<path pointer-events="all" class="st1" d="M291.5,138l-5.5-11l5.5,2.8l5.5-2.8L291.5,138z"/>
<ellipse pointer-events="all" class="st9" cx="291.5" cy="83.6" rx="20" ry="20"/>
<path pointer-events="stroke" class="st6" d="M171.5,721.1h-59"/>
<path pointer-events="all" class="st7" d="M105,721.1l10-5l-2.5,5l2.5,5L105,721.1z"/>
<path pointer-events="all" class="st5" d="M291.5,661.1l120,60l-120,60l-120-60L291.5,661.1z"/>
<g transform="translate(-0.5 -0.5)">
	<text transform="matrix(1 0 0 1 259.8125 724.61)" class="st3 st4">la requête...</text>
</g>
<path pointer-events="stroke" class="st6" d="M60.5,681.1v-97.5"/>
<path pointer-events="stroke" class="st6" d="M60.5,583.6h148"/>
<path pointer-events="all" class="st7" d="M216,583.6l-10,5l2.5-5l-2.5-5L216,583.6z"/>
<rect x="451.1" y="80.8" class="st13" width="169.6" height="152.6"/>
<text transform="matrix(1 0 0 1 451.1258 89.2978)"><tspan x="0" y="0" class="st14 st4">les recetes sont importées au </tspan><tspan x="0" y="14.4" class="st14 st4">chargement du site pour être </tspan><tspan x="0" y="28.8" class="st14 st4">formatées de</tspan><tspan x="0" y="43.2" class="st14 st4">manière à faciliter les recherches </tspan><tspan x="0" y="57.6" class="st14 st4">par la suite. L&apos;ensemble des </tspan><tspan x="0" y="72" class="st14 st4">recettes</tspan><tspan x="0" y="86.4" class="st14 st4">formatées sont stockées locale</tspan><tspan x="152.7" y="86.4" class="st14 st4">-</tspan><tspan x="0" y="100.8" class="st14 st4">ment, les recherches faites par</tspan><tspan x="0" y="115.2" class="st14 st4">l&apos;utilisateur s&apos;effectuent toutes </tspan><tspan x="0" y="129.6" class="st14 st4">dans cette collection.</tspan></text>
</svg>
